<svg width="227" height="198" viewBox="0 0 227 198" fill="none" xmlns="http://www.w3.org/2000/svg">
<path d="M122.16 193C118.311 199.667 108.689 199.667 104.84 193L2.21575 15.25C-1.63325 8.58334 3.17801 0.250009 10.876 0.250009L216.124 0.250027C223.822 0.250028 228.633 8.58336 224.784 15.25L122.16 193Z" fill="#6E58CD"/>
<path d="M113.5 148L45.517 30.25L181.483 30.25L113.5 148Z" fill="#E4E4E4"/>
<path d="M113.5 101L86.2202 53.75L140.78 53.75L113.5 101Z" fill="white"/>
<path d="M105.706 192.5L3.08177 14.75C-0.382322 8.75001 3.9478 1.25001 10.876 1.25001L216.124 1.25003C223.052 1.25003 227.382 8.75003 223.918 14.75L121.294 192.5C117.83 198.5 109.17 198.5 105.706 192.5Z" stroke="black" stroke-width="2"/>
</svg>
